<?xml version="1.0" encoding="UTF-8"?>
<svg id="Layer_1" data-name="Layer 1" xmlns="http://www.w3.org/2000/svg" viewBox="0 0 1000 1000">
  <defs>
    <style>
      .cls-1 {
        fill: #55c5d1;
        stroke-width: 0px;
      }
    </style>
  </defs>
  <g id="Warstwa_2" data-name="Warstwa 2">
    <g id="Warstwa_1" data-name="Warstwa 1">
      <path id="Path_2546" data-name="Path 2546" class="cls-1" d="M249.73,610.28c-1.51.02-2.73,1.23-2.77,2.74.04,1.52,1.26,2.74,2.77,2.77.73,0,1.43-.3,1.93-.84.51-.51.8-1.21.8-1.93.02-.73-.27-1.43-.8-1.93-.51-.52-1.21-.81-1.93-.8"/>
      <path id="Path_2547" data-name="Path 2547" class="cls-1" d="M257.24,610.28c-.73,0-1.42.29-1.93.8-.51.51-.79,1.21-.77,1.94.04,1.52,1.26,2.74,2.77,2.77.73,0,1.43-.3,1.93-.84,1.04-1.13.97-2.9-.17-3.94-.5-.46-1.15-.72-1.83-.73"/>
      <path id="Path_2548" data-name="Path 2548" class="cls-1" d="M494.11,574.21l.17,27.11h-47.42l6.98-6.68v-1.3c0-2.35-.62-4.65-1.79-6.68-1.17-2.01-2.84-3.69-4.84-4.88-4.13-2.39-9.22-2.39-13.36,0-2.02,1.18-3.7,2.87-4.84,4.92-1.17,2.03-1.79,4.34-1.79,6.68v1.43l6.88,6.38h-55.06l-.17-21.51h-8.62c-3.03-.11-6.04.51-8.78,1.82-2.14,1.06-3.9,2.75-5.04,4.84-1.96,3.63-2.24,7.93-.77,11.79.41,1.23,1.06,2.36,1.9,3.34h-43.85l-.17-27.45-4.58.17.17,31.73h127.93c.71.03,1.41-.1,2.07-.37.55-.26.97-.73,1.17-1.3.38.52.87.96,1.43,1.27.66.29,1.38.43,2.1.4h55v-31.88l-4.74.17ZM370.25,601.33c-2.94.27-5.89-.56-8.25-2.34-1.66-1.55-2.56-3.74-2.47-6.01-.05-2.26.86-4.43,2.5-5.98,2.3-1.81,5.2-2.68,8.11-2.4l4.11-.17v16.7l-4,.2ZM440.57,601.03l-8.75-8.04c.12-1.44.58-2.84,1.34-4.08.78-1.24,1.86-2.27,3.13-3.01,2.59-1.43,5.73-1.43,8.32,0,1.28.72,2.35,1.76,3.13,3.01.73,1.21,1.2,2.55,1.4,3.94l-8.57,8.18Z"/>
      <path id="Path_2549" data-name="Path 2549" class="cls-1" d="M363.2,577.12c.74.02,1.44-.29,1.93-.84.52-.51.81-1.21.8-1.93.02-.72-.28-1.41-.8-1.9-.5-.53-1.21-.82-1.93-.8-.72,0-1.41.27-1.93.77-1.03,1.06-1.01,2.76.05,3.79.03.03.06.06.09.08.5.54,1.2.85,1.93.84"/>
      <path id="Path_2550" data-name="Path 2550" class="cls-1" d="M370.72,577.12c.74.02,1.44-.29,1.93-.84.52-.51.81-1.21.8-1.93.02-.72-.28-1.41-.8-1.9-.5-.53-1.21-.82-1.93-.8-.72,0-1.41.27-1.93.77-1.07,1.02-1.11,2.72-.08,3.79.03.03.06.06.08.08.5.54,1.2.85,1.93.84"/>
      <path id="Path_2551" data-name="Path 2551" class="cls-1" d="M505.16,574.21l.17,31.73h4.58l-.2-31.89-4.54.17Z"/>
      <path id="Path_2552" data-name="Path 2552" class="cls-1" d="M611.31,609.04c-.73-.02-1.43.27-1.93.8-.55.49-.85,1.2-.84,1.93-.02.75.29,1.46.84,1.97.52.5,1.21.78,1.93.77.73,0,1.42-.28,1.93-.8.49-.52.77-1.22.77-1.93,0-1.5-1.2-2.72-2.7-2.74"/>
      <path id="Path_2553" data-name="Path 2553" class="cls-1" d="M754.6,574.21l.17,27.11h-48.45v-21.52h-4.58v21.17h-4.88c-1.7.12-3.35-.54-4.51-1.79-1.15-1.56-1.7-3.48-1.57-5.41v-12.69l-4.58.17v12.51c.13,1.91-.35,3.82-1.37,5.44-.9,1.17-2.33,1.83-3.81,1.74h-5.58l-.17-20.04-4.58.17v19.73h-45.52c-.6.04-1.2-.09-1.74-.37-.4-.35-.68-.82-.8-1.34-.36-1.29-.65-2.59-.87-3.91-.4-2.71-1.21-5.35-2.4-7.82-1.04-1.79-2.48-3.31-4.21-4.44-1.54-1.01-3.23-1.77-5.01-2.23-1.83-.47-3.72-.7-5.61-.7-1.9-.03-3.8.2-5.64.67l-.45.27,1,4.44h.45c1.44-.42,2.94-.62,4.44-.6,1.45,0,2.9.17,4.31.54,1.32.3,2.57.83,3.71,1.57,1.26.84,2.28,1.99,2.97,3.34.89,1.97,1.5,4.05,1.84,6.18-.05.5.02,1,.2,1.47.13,1.16.45,2.28.93,3.34h-61.11v-27.43l-4.58.17v27.15c0,7.82-3.34,11.62-10.42,11.62-2.7.11-5.37-.7-7.55-2.31-2.08-1.96-3.17-4.75-2.97-7.6.07-2.87.54-5.71,1.4-8.45v-.73h-4.61v.3c-.87,2.93-1.34,5.96-1.4,9.02-.35,4.18,1.28,8.29,4.41,11.09,3.11,2.29,6.9,3.46,10.76,3.32,3.58.16,7.11-.9,10.02-3.01,2.64-2.12,4.33-5.2,4.69-8.57h124.04c1.75.03,3.48-.4,5.01-1.27,1.21-.7,2.17-1.75,2.77-3.01.72,1.25,1.76,2.29,3.01,3.01,1.6.87,3.39,1.31,5.21,1.27h62.48v-31.73l-4.88.17Z"/>
      <path id="Path_2554" data-name="Path 2554" class="cls-1" d="M765.65,574.21l.13,31.73h4.58l-.17-31.89-4.54.17Z"/>
      <path id="Path_2555" data-name="Path 2555" class="cls-1" d="M276.75,580.46c-4.29-.6-8.26,2.39-8.86,6.68-.1.75-.1,1.51.01,2.25v12.14h-30.35c-1.37.11-2.74-.31-3.81-1.17-.85-1-1.27-2.3-1.17-3.61v-11.82l-4.74.13v11.92c-.63,4.29,2.33,8.28,6.61,8.91.7.1,1.4.11,2.1.03h36.23v-16.28c-.11-1.32.33-2.62,1.2-3.61,1.1-.9,2.53-1.31,3.94-1.13h5.91l.17,17.96h4.54l-.17-22.07-11.62-.34Z"/>
      <rect id="Rectangle_134" data-name="Rectangle 134" class="cls-1" x="297.05" y="583.2" width="4.67" height="32.59"/>
      <path id="Path_2556" data-name="Path 2556" class="cls-1" d="M358.5,481.78h-31.26v31.22h13.59v-17.66h17.66v-13.56Z"/>
      <rect id="Rectangle_135" data-name="Rectangle 135" class="cls-1" x="351.78" y="506.23" width="10.95" height="10.95"/>
      <rect id="Rectangle_136" data-name="Rectangle 136" class="cls-1" x="346.31" y="529.64" width="7.82" height="7.82"/>
      <rect id="Rectangle_137" data-name="Rectangle 137" class="cls-1" x="306.26" y="533.58" width="7.82" height="13.69"/>
      <rect id="Rectangle_138" data-name="Rectangle 138" class="cls-1" x="267.13" y="529.17" width="7.82" height="7.82"/>
      <rect id="Rectangle_139" data-name="Rectangle 139" class="cls-1" x="238.01" y="500.01" width="7.82" height="7.82"/>
      <rect id="Rectangle_140" data-name="Rectangle 140" class="cls-1" x="227.82" y="461.01" width="12.52" height="7.82"/>
      <rect id="Rectangle_141" data-name="Rectangle 141" class="cls-1" x="238.58" y="421.87" width="7.82" height="7.82"/>
      <rect id="Rectangle_142" data-name="Rectangle 142" class="cls-1" x="267.4" y="393.09" width="7.82" height="7.82"/>
      <rect id="Rectangle_143" data-name="Rectangle 143" class="cls-1" x="306.77" y="382.6" width="7.82" height="13.69"/>
      <rect id="Rectangle_144" data-name="Rectangle 144" class="cls-1" x="345.87" y="392.89" width="7.82" height="7.82"/>
      <rect id="Rectangle_145" data-name="Rectangle 145" class="cls-1" x="374.65" y="421.67" width="7.82" height="7.82"/>
      <rect id="Rectangle_146" data-name="Rectangle 146" class="cls-1" x="379.3" y="461.08" width="13.69" height="7.82"/>
      <rect id="Rectangle_147" data-name="Rectangle 147" class="cls-1" x="374.65" y="500.38" width="7.82" height="7.82"/>
      <rect id="Rectangle_148" data-name="Rectangle 148" class="cls-1" x="321.53" y="522.82" width="10.95" height="13.32"/>
      <rect id="Rectangle_149" data-name="Rectangle 149" class="cls-1" x="368.88" y="476.57" width="13.32" height="10.95"/>
      <rect id="Rectangle_150" data-name="Rectangle 150" class="cls-1" x="368.88" y="442.31" width="13.32" height="10.95"/>
      <rect id="Rectangle_151" data-name="Rectangle 151" class="cls-1" x="288.37" y="522.82" width="10.95" height="13.32"/>
      <rect id="Rectangle_152" data-name="Rectangle 152" class="cls-1" x="258.15" y="506.29" width="10.95" height="10.95"/>
      <rect id="Rectangle_153" data-name="Rectangle 153" class="cls-1" x="351.78" y="412.66" width="10.95" height="10.95"/>
      <rect id="Rectangle_154" data-name="Rectangle 154" class="cls-1" x="322.6" y="393.69" width="10.95" height="13.32"/>
      <rect id="Rectangle_155" data-name="Rectangle 155" class="cls-1" x="239.18" y="477.14" width="13.32" height="10.95"/>
      <rect id="Rectangle_156" data-name="Rectangle 156" class="cls-1" x="239.18" y="442.31" width="13.32" height="10.95"/>
      <rect id="Rectangle_157" data-name="Rectangle 157" class="cls-1" x="288.33" y="393.69" width="10.95" height="13.32"/>
      <rect id="Rectangle_158" data-name="Rectangle 158" class="cls-1" x="258.15" y="412.66" width="10.95" height="10.95"/>
      <path id="Path_2557" data-name="Path 2557" class="cls-1" d="M262.32,448.09h31.26v-31.22h-13.59v17.63h-17.66v13.59Z"/>
      <rect id="Rectangle_159" data-name="Rectangle 159" class="cls-1" x="303.63" y="497.34" width="13.59" height="22.31"/>
      <rect id="Rectangle_160" data-name="Rectangle 160" class="cls-1" x="255.71" y="458.14" width="22.31" height="13.59"/>
      <rect id="Rectangle_161" data-name="Rectangle 161" class="cls-1" x="342.83" y="458.14" width="22.31" height="13.59"/>
      <rect id="Rectangle_162" data-name="Rectangle 162" class="cls-1" x="303.63" y="410.22" width="13.59" height="22.31"/>
      <path id="Path_2558" data-name="Path 2558" class="cls-1" d="M327.27,416.83v16.66l-.03,1v13.59h31.26v-13.61h-17.66v-17.65h-13.56Z"/>
      <path id="Path_2559" data-name="Path 2559" class="cls-1" d="M293.28,513.3v-31.22h-31.26v13.56h17.66v17.66h13.59Z"/>
      <path id="Path_2560" data-name="Path 2560" class="cls-1" d="M522.92,483.15l1.74-.67c3.6-1.32,6.98-3.18,10.02-5.51,5.49-4.23,9.42-10.16,11.17-16.86.93-3.5,1.4-7.1,1.4-10.72.08-5.13-.85-10.22-2.74-14.99-1.81-4.31-4.65-8.11-8.28-11.06-4.21-3.28-9.06-5.67-14.23-7.01-6.71-1.76-13.63-2.59-20.57-2.47h-52.01v102.33h18.37v-30.06h35.16l19.8,30.05h22.54l-22.37-33.03ZM521.13,464.89c-2.4,1.93-5.16,3.37-8.11,4.24-3.58,1.03-7.29,1.53-11.02,1.47h-34.21v-41.24h34.19c6.76-.46,13.48,1.34,19.12,5.11,4.46,3.58,6.95,9.08,6.7,14.8.04,2.98-.51,5.95-1.64,8.71-1.1,2.59-2.81,4.88-4.97,6.68"/>
      <path id="Path_2561" data-name="Path 2561" class="cls-1" d="M653.05,500.35h-69.62v-32.23h60.41v-14.62h-60.41v-23.91h68.22v-15.76h-86.59v102.22h87.99v-15.69Z"/>
      <path id="Path_2562" data-name="Path 2562" class="cls-1" d="M769.6,434.36c-1.79-4.32-4.64-8.12-8.28-11.06-4.2-3.29-9.03-5.68-14.2-7.02-6.72-1.76-13.66-2.59-20.6-2.47h-51.99v102.33h18.37v-30.02h35.16l19.77,30.05h22.54l-22.34-32.89,1.74-.67c3.59-1.34,6.97-3.19,10.02-5.51,2.75-2.17,5.14-4.76,7.08-7.68,1.86-2.86,3.26-5.99,4.14-9.29.92-3.51,1.38-7.12,1.37-10.75.08-5.13-.86-10.23-2.77-14.99M751.19,458.11c-1.1,2.59-2.81,4.88-4.97,6.68-2.41,1.92-5.16,3.35-8.11,4.23-3.59,1.03-7.32,1.53-11.06,1.47h-34.17v-41.13h34.16c6.78-.48,13.53,1.32,19.17,5.11,4.45,3.59,6.94,9.08,6.68,14.8.03,2.98-.53,5.94-1.64,8.71"/>
    </g>
  </g>
</svg>